<?xml version="1.0" standalone="no"?>
<!DOCTYPE svg PUBLIC "-//W3C//DTD SVG 20010904//EN"
 "http://www.w3.org/TR/2001/REC-SVG-20010904/DTD/svg10.dtd">
<svg version="1.0" xmlns="http://www.w3.org/2000/svg"
 width="4087.000000pt" height="1491.000000pt" viewBox="0 0 4087.000000 1491.000000"
 preserveAspectRatio="xMidYMid meet">

<g transform="translate(0.000000,1491.000000) scale(0.100000,-0.100000)"
fill="#000000" stroke="none">
<path d="M3670 14899 c-416 -30 -900 -129 -1245 -254 -803 -292 -1713 -975
-2113 -1588 -63 -96 -158 -282 -205 -402 -242 -609 -43 -1321 478 -1715 102
-77 1320 -827 1445 -890 116 -58 267 -107 411 -131 105 -18 148 -20 284 -16
88 4 189 13 225 21 36 9 68 15 73 16 4 0 5 -246 2 -547 -3 -302 -6 -1695 -8
-3098 l-2 -2550 23 -102 c68 -308 191 -533 411 -754 222 -222 443 -341 761
-411 l105 -23 1220 0 1220 0 101 22 c127 29 284 83 384 133 269 135 518 381
646 639 27 55 52 100 55 100 4 1 9 -9 13 -21 9 -37 104 -197 162 -275 224
-300 525 -491 908 -576 l101 -22 1220 0 c1119 0 1228 1 1312 17 407 77 760
309 978 643 77 117 125 218 181 375 3 8 29 -57 58 -145 234 -705 616 -1316
1166 -1865 836 -834 1925 -1347 3105 -1462 197 -19 683 -16 890 6 835 87 1608
360 2194 774 458 324 1084 1002 1303 1412 50 92 138 306 138 334 0 22 -1 21
175 51 986 168 1973 560 2676 1063 l130 93 22 -28 c69 -88 208 -241 298 -328
417 -401 914 -688 1499 -864 687 -208 1548 -255 2298 -126 79 14 149 25 156
25 7 0 56 -57 108 -127 600 -805 1465 -1334 2533 -1548 575 -115 1194 -151
1720 -100 1033 100 2010 477 2823 1089 200 151 345 278 537 470 367 368 666
777 881 1209 36 72 67 133 68 135 2 1 54 11 117 23 708 127 1342 418 1934 888
166 131 441 409 546 551 47 63 139 186 205 273 195 259 232 315 299 452 71
143 115 268 142 402 24 124 24 405 0 528 -41 203 -118 389 -228 556 -76 114
-271 312 -379 385 -96 65 -1367 784 -1474 834 -109 51 -258 96 -391 118 l-110
18 70 23 c427 141 785 499 929 931 63 191 67 228 77 820 6 300 8 725 6 945 -4
439 -6 451 -72 652 -117 352 -387 664 -722 836 -213 109 -393 155 -644 164
l-167 6 -5 241 c-5 259 -17 338 -73 509 -144 442 -510 800 -960 940 -208 65
-126 62 -1469 62 l-1220 0 -104 -23 c-205 -46 -399 -131 -564 -249 -109 -77
-268 -238 -342 -345 -33 -48 -62 -87 -65 -87 -3 -1 -14 13 -24 30 -34 57 -162
204 -242 277 -221 202 -503 350 -785 411 -187 40 -272 43 -1249 38 -1003 -4
-955 -2 -1169 -57 -96 -24 -234 -77 -332 -126 -160 -80 -398 -265 -499 -388
-25 -30 -47 -55 -50 -55 -3 0 -25 25 -50 55 -61 75 -187 184 -293 255 -155
103 -332 178 -530 221 l-102 23 -1205 0 -1205 0 -101 -22 c-292 -65 -529 -187
-732 -378 -265 -250 -428 -584 -462 -950 -6 -64 -10 -440 -10 -907 0 -439 -2
-798 -5 -798 -2 0 -42 24 -87 53 -799 512 -1854 771 -2878 707 -1366 -86
-2680 -646 -3599 -1536 l-137 -133 -55 97 c-287 511 -732 971 -1242 1286 -674
416 -1541 628 -2462 602 -780 -22 -1466 -186 -2097 -502 l-150 -75 -101 59
c-894 521 -2141 663 -3295 375 -79 -19 -144 -34 -146 -32 -2 2 -27 58 -55 124
-270 625 -750 1205 -1311 1584 -516 349 -1079 552 -1755 632 -197 23 -644 33
-845 18z m812 -1278 c488 -76 899 -253 1253 -538 404 -326 711 -820 855 -1376
45 -173 75 -343 90 -501 11 -127 36 -190 101 -261 63 -68 122 -99 185 -99 59
1 74 9 254 131 347 236 771 389 1270 458 154 22 634 31 806 16 672 -59 1182
-277 1599 -682 128 -124 156 -141 235 -141 67 0 104 16 180 81 509 432 1149
681 1906 742 192 15 676 7 844 -15 384 -50 698 -143 991 -292 730 -371 1185
-1039 1333 -1954 51 -311 49 -230 56 -2440 l6 -2095 26 -165 c67 -423 151
-628 335 -821 130 -136 293 -230 494 -284 312 -84 664 -1 921 218 27 23 83 81
124 129 94 111 132 132 235 133 69 0 81 -3 145 -38 163 -89 440 -219 574 -270
269 -103 597 -184 888 -221 73 -10 138 -24 160 -35 88 -45 133 -122 140 -242
7 -125 -40 -247 -154 -399 -249 -329 -627 -704 -886 -878 -356 -239 -877 -421
-1428 -499 -180 -25 -732 -25 -905 0 -632 92 -1180 308 -1686 663 -347 244
-684 577 -914 905 -315 448 -487 875 -577 1429 -22 135 -22 136 -28 2175 -6
2030 -7 2041 -28 2150 -92 476 -341 727 -806 812 -129 24 -435 23 -571 -1
-193 -34 -377 -111 -507 -213 -194 -152 -322 -419 -357 -741 -8 -72 -11 -773
-11 -2330 0 -1429 -4 -2240 -10 -2262 -13 -47 -50 -96 -97 -129 l-38 -26
-1131 0 -1130 0 -42 27 c-22 15 -54 49 -69 75 l-28 48 -5 2320 c-6 2593 0
2382 -76 2615 -114 347 -353 545 -744 617 -130 23 -429 23 -557 0 -246 -45
-441 -139 -590 -285 -175 -171 -270 -394 -303 -712 -6 -59 -10 -931 -10 -2316
l0 -2220 -27 -55 c-19 -35 -43 -64 -71 -84 l-44 -30 -1101 -3 c-775 -2 -1113
0 -1140 8 -48 14 -102 61 -130 114 l-22 41 2 2350 c2 1293 4 2895 5 3560 l3
1210 -23 85 c-39 144 -93 242 -181 330 -125 125 -254 177 -461 187 -190 9
-353 -29 -501 -117 -79 -47 -191 -148 -245 -221 -57 -78 -142 -118 -224 -104
-27 5 -236 128 -677 399 -599 369 -640 396 -668 441 -22 36 -30 62 -33 109 -3
57 0 68 51 171 65 132 112 194 260 344 288 293 611 526 999 721 313 157 629
248 1008 290 52 5 109 12 125 14 17 2 167 3 335 1 253 -2 328 -6 442 -24z
m27218 -148 c87 -43 135 -85 182 -157 73 -114 71 -94 77 -746 l6 -585 32 -65
c43 -86 84 -135 157 -182 113 -73 97 -71 717 -77 l556 -6 42 -29 c23 -16 54
-50 69 -75 l27 -46 3 -740 c2 -407 0 -759 -3 -781 -9 -61 -56 -126 -114 -157
l-49 -27 -514 0 c-309 0 -537 -4 -569 -10 -138 -26 -263 -122 -322 -247 l-32
-68 0 -2345 0 -2345 27 -98 c16 -54 41 -132 58 -173 178 -444 577 -630 1116
-518 256 52 503 185 687 367 219 218 395 421 453 524 58 103 131 154 219 153
47 -1 94 -22 172 -78 173 -124 443 -271 657 -359 275 -113 529 -184 841 -233
147 -24 187 -43 232 -111 19 -29 28 -57 31 -100 4 -51 0 -68 -31 -134 -160
-337 -450 -724 -752 -1007 -649 -605 -1475 -984 -2410 -1105 -222 -28 -776
-26 -1025 5 -473 58 -792 137 -1105 271 -957 412 -1575 1308 -1665 2416 -8
103 -10 1264 -8 4360 l3 4220 32 67 c53 113 153 204 262 239 52 17 114 18 966
16 l910 -2 65 -32z m4650 -27 c49 -26 79 -55 103 -101 22 -40 22 -47 27 -775
3 -404 7 -736 8 -737 1 -2 19 -21 39 -44 71 -79 22 -73 743 -79 l645 -5 48
-23 c55 -28 104 -82 117 -133 7 -24 7 -309 2 -815 -10 -853 -7 -817 -70 -880
-17 -17 -48 -40 -69 -50 -36 -18 -76 -19 -688 -24 l-650 -5 -38 -23 c-45 -28
-80 -74 -96 -122 -18 -58 3 -2041 24 -2180 34 -235 90 -364 205 -481 87 -88
170 -138 303 -182 82 -27 106 -31 212 -31 140 -1 208 15 332 74 151 74 281
196 383 364 23 38 51 77 63 87 41 34 103 52 164 47 55 -4 94 -24 708 -372 358
-202 661 -378 673 -389 39 -36 64 -95 64 -153 1 -68 -36 -140 -136 -267 -40
-52 -126 -168 -191 -257 -133 -183 -207 -266 -340 -379 -504 -431 -1071 -672
-1719 -732 -179 -16 -552 -6 -721 20 -881 134 -1582 565 -2032 1247 -231 351
-376 743 -455 1229 l-23 140 -2 2943 -3 2944 26 48 c14 26 39 57 56 70 69 51
26 49 1178 47 1028 -2 1077 -3 1110 -21z m-8831 -25 c41 -22 96 -78 114 -120
9 -20 13 -880 17 -3601 l5 -3575 23 -79 c41 -141 87 -221 182 -317 96 -97 177
-143 315 -181 109 -29 358 -31 488 -4 161 34 256 2 309 -104 l28 -55 41 -734
c46 -833 48 -793 -31 -872 -39 -38 -58 -49 -125 -67 -185 -51 -437 -94 -670
-113 -179 -15 -623 -6 -805 16 -432 51 -844 182 -1144 361 -220 132 -394 276
-542 448 -331 384 -513 858 -563 1469 -8 87 -11 1287 -11 3750 l0 3622 24 51
c23 51 68 94 116 113 16 6 421 10 1108 10 1053 1 1084 0 1121 -18z m-5949
-2281 c746 -68 1372 -319 1919 -768 441 -363 780 -838 1004 -1407 85 -217 110
-302 103 -359 -6 -56 -42 -122 -83 -152 -15 -11 -973 -492 -2128 -1068 -1155
-576 -2113 -1059 -2129 -1074 -63 -60 -84 -167 -47 -247 28 -63 103 -121 246
-191 220 -107 400 -147 665 -147 181 0 282 11 468 49 238 49 536 150 731 249
266 134 504 333 724 607 83 105 111 128 171 148 91 29 84 33 797 -391 362
-215 670 -403 685 -417 39 -39 64 -100 64 -157 0 -65 -33 -133 -141 -295 -305
-454 -712 -814 -1254 -1108 -570 -309 -1337 -543 -2060 -629 -216 -25 -790
-25 -995 0 -654 82 -1216 285 -1695 614 -286 197 -582 480 -793 759 -374 495
-624 1128 -717 1814 -22 161 -31 563 -16 731 90 991 573 1862 1391 2514 626
498 1482 833 2350 920 156 16 587 18 740 5z m11674 -5497 l24 -48 -22 -37
c-11 -21 -24 -38 -28 -38 -5 0 -8 38 -8 85 0 47 2 85 5 85 2 0 15 -21 29 -47z"/>
<path d="M20780 9329 c-260 -33 -540 -135 -743 -269 -99 -65 -250 -210 -326
-311 -159 -211 -250 -462 -273 -759 -22 -285 9 -403 121 -462 109 -57 22 -93
1229 513 592 298 1093 554 1112 569 69 53 96 131 79 220 -10 51 -18 62 -98
141 -138 137 -294 231 -500 299 -187 63 -407 84 -601 59z"/>
<path d="M3817 1579 c-61 -14 -112 -45 -156 -95 -71 -81 -71 -84 -71 -641 l0
-493 125 0 125 0 0 335 0 335 110 0 110 0 0 100 0 100 -110 0 -110 0 0 45 c0
59 16 91 55 110 41 19 76 19 122 0 19 -8 37 -15 38 -15 8 0 65 175 61 185 -13
34 -206 56 -299 34z"/>
<path d="M8840 1025 c0 -260 4 -433 11 -465 18 -82 63 -139 143 -180 66 -34
73 -35 175 -35 90 0 114 4 159 24 29 13 51 29 49 35 -2 6 -17 46 -33 89 -25
69 -31 77 -49 71 -11 -4 -46 -9 -77 -11 -54 -4 -60 -3 -88 25 l-30 30 0 206 0
205 108 3 107 3 3 98 3 97 -111 0 -110 0 0 110 0 110 -130 0 -130 0 0 -415z"/>
<path d="M4453 1235 c-181 -49 -309 -193 -332 -371 -20 -158 27 -293 136 -395
82 -77 180 -117 308 -125 203 -14 386 77 467 233 142 272 9 581 -283 658 -68
19 -228 18 -296 0z m278 -230 c66 -46 94 -110 93 -210 0 -62 -5 -89 -22 -122
-83 -159 -316 -161 -396 -2 -21 43 -26 67 -26 126 0 82 13 121 56 172 44 52
96 72 181 69 61 -3 78 -8 114 -33z"/>
<path d="M5673 1235 c-56 -17 -128 -60 -148 -87 -14 -21 -15 -20 -15 35 l0 57
-125 0 -125 0 0 -445 0 -445 130 0 130 0 0 236 c0 276 6 311 64 369 46 45 98
65 175 65 l51 0 0 115 0 115 -47 -1 c-27 0 -67 -6 -90 -14z"/>
<path d="M6365 1237 c-56 -19 -97 -41 -119 -66 -28 -31 -36 -26 -36 24 l0 45
-120 0 -120 0 0 -445 0 -445 124 0 125 0 3 263 c3 242 5 265 24 308 32 68 82
102 158 107 79 4 122 -17 156 -78 25 -45 25 -48 28 -322 l4 -278 123 0 123 0
4 263 c4 297 10 327 84 383 33 26 45 29 110 29 84 0 115 -17 148 -81 20 -36
21 -59 24 -317 l3 -278 127 3 127 3 3 245 c1 135 -2 283 -7 329 -18 144 -76
237 -179 288 -53 26 -66 28 -177 28 -114 0 -123 -2 -185 -31 -36 -17 -81 -47
-100 -66 l-35 -35 -43 44 c-64 66 -117 86 -237 90 -63 2 -115 -2 -140 -10z"/>
<path d="M7938 1231 c-150 -49 -246 -155 -283 -313 -49 -208 38 -431 203 -521
147 -80 355 -71 461 19 l41 36 0 -51 0 -51 125 0 125 0 0 445 0 445 -130 0
-130 0 0 -47 0 -47 -27 26 c-59 55 -110 72 -223 75 -82 2 -118 -1 -162 -16z
m287 -210 c84 -39 127 -113 127 -223 1 -95 -37 -170 -106 -213 -42 -26 -59
-30 -115 -30 -117 1 -196 66 -222 181 -36 161 66 304 216 304 37 0 75 -8 100
-19z"/>
<path d="M11066 1234 c-57 -18 -89 -36 -133 -78 l-33 -30 0 57 0 57 -120 0
-120 0 0 -445 0 -446 128 3 127 3 5 260 c6 288 7 294 74 353 42 36 91 52 164
52 l52 0 0 115 0 115 -47 -1 c-27 0 -70 -7 -97 -15z"/>
<path d="M11595 1236 c-229 -73 -350 -309 -290 -565 50 -212 242 -346 468
-328 76 7 166 43 210 84 l27 27 0 -52 0 -53 123 3 122 3 3 443 2 442 -130 0
-130 0 0 -46 0 -46 -34 30 c-56 49 -132 72 -239 71 -51 0 -110 -6 -132 -13z
m281 -215 c49 -22 97 -78 113 -130 20 -69 14 -161 -15 -220 -62 -123 -230
-158 -338 -69 -128 105 -108 345 35 416 56 28 147 29 205 3z"/>
<path d="M12672 1234 c-145 -39 -228 -123 -239 -241 -7 -74 10 -134 49 -179
53 -60 121 -85 322 -119 142 -23 177 -45 156 -100 -15 -40 -59 -55 -157 -55
-96 0 -178 17 -260 54 l-51 24 -41 -90 c-23 -50 -40 -92 -39 -93 18 -16 105
-50 166 -66 227 -59 461 -21 566 91 93 100 89 257 -10 338 -48 40 -125 65
-279 92 -139 24 -170 40 -170 90 0 24 7 38 28 54 25 18 42 21 135 20 92 0 117
-4 176 -27 37 -15 70 -27 72 -27 3 0 84 170 84 177 0 9 -90 41 -157 57 -89 20
-277 20 -351 0z"/>
<path d="M9520 960 c0 -167 4 -300 11 -332 27 -128 98 -216 208 -260 44 -17
77 -22 156 -22 89 -1 107 2 162 28 34 15 72 39 84 52 12 13 26 24 31 24 4 0 8
-22 8 -50 l0 -50 120 0 120 0 0 445 0 445 -129 0 -130 0 -3 -268 -3 -269 -30
-48 c-40 -64 -90 -90 -172 -89 -84 1 -130 32 -160 109 -8 20 -12 118 -12 298
l-1 267 -130 0 -130 0 0 -280z"/>
</g>
</svg>
